<svg xmlns="http://www.w3.org/2000/svg" width="1440" height="900" viewBox="0 0 1440 900" fill="none">
<mask id="mask0_43_2078" style="mask-type:alpha" maskUnits="userSpaceOnUse" x="0" y="0" width="1440" height="900">
<rect width="1440" height="900" fill="#FAF2D3"/>
</mask>
<g mask="url(#mask0_43_2078)">
<rect width="1440" height="900" fill="#FAF2E3"/>
<ellipse cx="630.2" cy="523.726" rx="136.2" ry="132.726" fill="#2CA2E6" fill-opacity="0.8"/>
<path d="M439 264.5C439 379.651 343.189 473 225 473C106.811 473 11 379.651 11 264.5C11 149.349 106.811 56 225 56C343.189 56 439 149.349 439 264.5Z" fill="#5FBFEF" fill-opacity="0.6"/>
<path d="M1226.52 1127.11C1249.56 1151.36 1234.44 1191.49 1201.12 1194.5L413.106 1265.78C383.719 1268.44 361.667 1239.45 372.071 1211.84L615.03 567.008C625.433 539.396 661.13 532.167 681.456 553.556L1226.52 1127.11Z" fill="#8ECDDD" fill-opacity="0.7"/>
<path d="M344.156 1335.91C342.388 1369.31 302.846 1385.92 277.758 1363.8L-315.728 840.511C-337.86 820.996 -331.967 785.055 -304.763 773.629L330.561 506.787C357.765 495.36 387.555 516.316 385.995 545.781L344.156 1335.91Z" fill="#CAEDFF" fill-opacity="0.7"/>
<path d="M534.594 174.708C534.594 188 537.212 201.161 542.298 213.44C547.385 225.72 554.84 236.878 564.238 246.276C573.637 255.674 584.794 263.13 597.074 268.216C609.354 273.302 622.515 275.92 635.806 275.92C649.098 275.92 662.259 273.302 674.538 268.216C686.818 263.13 697.976 255.674 707.374 246.276C716.772 236.878 724.228 225.72 729.314 213.44C734.4 201.161 737.018 188 737.018 174.708C737.018 161.417 734.4 148.256 729.314 135.976C724.228 123.696 716.772 112.539 707.374 103.14C697.976 93.742 686.818 86.2867 674.538 81.2003C662.259 76.114 649.098 73.496 635.806 73.496C622.515 73.496 609.354 76.114 597.074 81.2003C584.794 86.2867 573.637 93.742 564.238 103.14C554.84 112.539 547.385 123.696 542.298 135.976C537.212 148.256 534.594 161.417 534.594 174.708Z" fill="#228E9D"/>
<path d="M529.645 298.441C529.645 303.842 534.024 308.221 539.425 308.221C534.024 308.221 529.645 312.6 529.645 318.001C529.645 312.599 525.266 308.221 519.865 308.221C525.266 308.221 529.645 303.842 529.645 298.441Z" fill="#ED8F27"/>
<path d="M534.607 327.371H524.681V318C524.681 315.344 522.522 313.185 519.866 313.185H510.495V303.259H519.866C522.522 303.259 524.681 301.097 524.681 298.441V289.07H534.607V298.441C534.607 301.097 536.769 303.259 539.425 303.259V313.185C536.77 313.185 534.607 315.344 534.607 318V327.371ZM548.796 313.185H539.425V303.259H548.796V313.185Z" fill="#ED8F27"/>
<path d="M802.596 209.409C802.596 213.025 805.527 215.956 809.144 215.956C805.527 215.956 802.596 218.888 802.596 222.504C802.596 218.888 799.664 215.956 796.048 215.956C799.664 215.956 802.596 213.025 802.596 209.409Z" fill="#ED8F27"/>
<path d="M805.918 228.778H799.272V222.504C799.272 220.726 797.827 219.279 796.049 219.279H789.775V212.633H796.049C796.904 212.633 797.723 212.293 798.327 211.688C798.932 211.084 799.272 210.264 799.272 209.41V203.136H805.918V209.41C805.918 211.188 807.366 212.633 809.144 212.633V219.279C807.366 219.279 805.918 220.727 805.918 222.504V228.778ZM815.417 219.279H809.144V212.633H815.417V219.279Z" fill="#ED8F27"/>
<path d="M760.32 230.064C760.32 235.465 764.698 239.844 770.099 239.844C764.698 239.844 760.32 244.223 760.32 249.624C760.32 244.222 755.94 239.844 750.539 239.844C755.94 239.844 760.32 235.465 760.32 230.064Z" fill="#ED8F27"/>
<path d="M765.283 258.995H755.357V249.623C755.357 246.968 753.195 244.809 750.539 244.809H741.168V234.882H750.539C753.195 234.882 755.357 232.72 755.357 230.065V220.693H765.283V230.064C765.283 232.72 767.442 234.882 770.098 234.882V244.809C767.442 244.809 765.283 246.967 765.283 249.623V258.995ZM779.469 244.809H770.099V234.882H779.469V244.809Z" fill="#ED8F27"/>
<path d="M723.751 296.58C723.751 300.269 726.741 303.259 730.429 303.259H736.828H730.43C726.741 303.259 723.751 306.249 723.751 309.937C723.751 306.249 720.761 303.259 717.073 303.259C720.761 303.259 723.751 300.269 723.751 296.58Z" fill="#ED8F27"/>
<path d="M727.14 316.337H720.362V309.938C720.362 308.124 718.886 306.648 717.072 306.648H710.673V299.869H717.072C718.885 299.869 720.362 298.393 720.362 296.579V290.181H727.141V296.58C727.141 298.394 728.617 299.87 730.431 299.87V306.648C728.617 306.648 727.141 308.124 727.141 309.938L727.14 316.337ZM736.829 306.648H730.43V299.869H736.829V306.648Z" fill="#ED8F27"/>
<path d="M469.897 130.738C469.897 136.139 474.275 140.517 479.677 140.517C474.275 140.517 469.897 144.897 469.897 150.298C469.897 144.896 465.517 140.518 460.116 140.518C465.518 140.518 469.897 136.139 469.897 130.738Z" fill="#ED8F27"/>
<path d="M474.861 159.67H464.934V150.299C464.934 147.643 462.772 145.481 460.116 145.481H450.746V135.555H460.116C462.773 135.555 464.934 133.392 464.934 130.737V121.366H474.861V130.737C474.861 133.392 477.019 135.555 479.675 135.555V145.481C477.019 145.481 474.861 147.643 474.861 150.299V159.67ZM489.046 145.481H479.675V135.555H489.046V145.481Z" fill="#ED8F27"/>
<path d="M670.226 278.309C612.819 297.386 550.593 266.202 531.516 208.795C512.439 151.388 543.623 89.1624 601.03 70.0852C658.437 51.008 720.662 82.1922 739.74 139.599C758.817 197.006 727.633 259.232 670.226 278.309ZM604.16 79.505C551.948 96.8558 523.585 153.452 540.936 205.665C558.287 257.877 614.884 286.24 667.096 268.889C719.308 251.538 747.67 194.942 730.32 142.73C712.968 90.5167 656.372 62.1538 604.16 79.505Z" fill="#300604"/>
<path d="M538.431 264.267C509.656 273.83 486.881 276.468 480.36 265.362C471.04 249.489 502.62 219.511 530.757 197.156L536.93 204.932C491.875 240.726 486.997 257.065 488.919 260.338C495.076 270.823 561.181 252.509 650.74 199.929C690.796 176.41 726.599 151.229 751.555 129.025C780.045 103.673 784.148 91.1411 782.336 88.0554C780.396 84.7501 763.566 81.0539 709.701 103.34L705.904 94.1686C739.496 80.2645 781.517 67.0527 790.896 83.0317C797.196 93.7616 786.486 111.23 758.154 136.442C732.727 159.063 696.366 184.652 655.765 208.489C620.9 228.962 574.857 252.163 538.431 264.267Z" fill="#300604"/>
<path d="M493.113 96.918C493.113 99.0533 493.534 101.168 494.351 103.141C495.168 105.113 496.366 106.906 497.876 108.416C499.386 109.926 501.178 111.123 503.151 111.941C505.124 112.758 507.238 113.178 509.374 113.178C511.509 113.178 513.623 112.758 515.596 111.941C517.569 111.123 519.362 109.926 520.871 108.416C522.381 106.906 523.579 105.113 524.396 103.141C525.213 101.168 525.634 99.0533 525.634 96.918C525.634 94.7827 525.213 92.6682 524.396 90.6954C523.579 88.7226 522.381 86.9301 520.871 85.4202C519.362 83.9103 517.569 82.7126 515.596 81.8954C513.623 81.0782 511.509 80.6577 509.374 80.6577C507.238 80.6577 505.124 81.0782 503.151 81.8954C501.178 82.7126 499.386 83.9103 497.876 85.4202C496.366 86.9301 495.168 88.7226 494.351 90.6954C493.534 92.6682 493.113 94.7827 493.113 96.918Z" fill="#B12800"/>
<path d="M509.375 118.141C497.671 118.141 488.149 108.622 488.149 96.918C488.149 85.2139 497.671 75.6943 509.375 75.6943C521.079 75.6943 530.599 85.2139 530.599 96.918C530.599 108.622 521.079 118.141 509.375 118.141ZM509.375 85.6214C503.145 85.6214 498.075 90.6885 498.075 96.9184C498.075 103.148 503.145 108.215 509.375 108.215C515.605 108.215 520.672 103.148 520.672 96.9184C520.672 90.688 515.605 85.6214 509.375 85.6214Z" fill="#300604"/>
<path d="M690.581 85.039C695.192 75.9922 696.33 65.1804 692.875 54.7833C686.026 34.1737 663.766 23.0176 643.156 29.867C625.314 35.7964 614.582 53.2765 616.458 71.2355C642.644 66.3268 668.953 71.723 690.581 85.039Z" fill="#FCE3C3"/>
<path d="M692.562 92.0848L687.978 89.2635C666.791 76.2208 641.718 71.5526 617.373 76.1152L612.084 77.1068L611.523 71.7526C609.38 51.2548 622.025 31.6583 641.592 25.156C664.765 17.455 689.882 30.0428 697.584 53.2188C701.346 64.54 700.431 76.6425 695.004 87.2892L692.562 92.0848ZM621.259 65.443C644.321 62.3658 667.702 66.7248 688.194 77.9177C690.51 70.9408 690.523 63.4486 688.164 56.3501C682.189 38.3682 662.701 28.6022 644.722 34.5767C631.233 39.0588 621.988 51.5567 621.259 65.443Z" fill="#300604"/>
<path d="M585.807 266.305C579.177 275.517 576.879 287.651 580.732 299.244C587.108 318.433 607.833 328.819 627.022 322.443C645.651 316.252 655.935 296.542 650.688 277.84C627.908 281.175 605.231 276.807 585.807 266.305Z" fill="#ED8F27"/>
<path d="M628.588 327.153C606.832 334.383 583.251 322.565 576.021 300.809C571.835 288.212 573.988 274.23 581.777 263.405L584.326 259.865L588.165 261.94C607.249 272.255 628.62 276.057 649.968 272.929L654.286 272.294L655.466 276.499C661.468 297.9 649.661 320.15 628.588 327.153ZM587.591 272.805C583.534 280.415 582.703 289.439 585.441 297.679C590.944 314.24 608.896 323.237 625.458 317.733C640.134 312.856 648.902 298.256 646.781 283.328C626.385 285.451 606.098 281.845 587.591 272.805ZM694.409 126.323C694.33 126.186 685.871 111.689 670.815 104.144C655.676 96.5566 639.999 97.7284 639.842 97.741L639.015 87.936C639.763 87.8721 657.522 86.4757 675.223 95.3468C693.016 104.263 702.56 120.753 702.958 121.451L694.409 126.323ZM706.896 127.816L712.203 138.68L703.362 142.998L698.055 132.134L706.896 127.816Z" fill="#300604"/>
<g clip-path="url(#clip0_43_2078)">
<path d="M303.444 506.042C329.563 535.762 357.76 600.12 335.039 684.917C328.789 708.242 320.068 729.364 311.527 746.781L176.075 710.487C177.386 691.133 180.395 668.48 186.644 645.155C209.366 560.358 265.965 518.721 303.444 506.042Z" fill="#F9EBB2"/>
<path d="M84.8067 686.031L171.653 661.184C167.354 682.191 165.34 702.004 164.585 718.769L81.9665 696.631L84.8067 686.031Z" fill="#F9EBB2"/>
<path d="M76.2862 717.83L79.1264 707.231L164.236 730.036C164.167 734.152 164.172 737.948 164.226 741.519C164.222 741.472 164.221 741.432 164.221 741.392L76.2862 717.83Z" fill="#45AAB8"/>
<path d="M218.239 824.03C212.94 822.61 205.18 809.17 210.86 787.971L242.659 796.492C236.979 817.691 223.539 825.45 218.239 824.03Z" fill="#F76D57"/>
<path d="M282.598 795.833L176.602 767.431C176.602 767.431 174.409 749.03 175.471 721.685L306.456 756.783C293.697 780.993 282.598 795.833 282.598 795.833Z" fill="#45AAB8"/>
<path d="M394.274 803.035L306.34 779.473C306.318 779.513 306.298 779.547 306.272 779.58C308.104 776.515 310.008 773.225 312.005 769.63L397.115 792.435L394.274 803.035Z" fill="#45AAB8"/>
<path d="M399.955 781.836L317.336 759.698C325.058 744.806 333.22 726.64 340.007 706.294L402.795 771.236L399.955 781.836Z" fill="#F9EBB2"/>
<path d="M410.684 763.608L343.727 694.363C343.721 694.384 343.714 694.41 343.703 694.43C344.355 692.208 345.032 690.02 345.639 687.757C368.397 602.823 343.023 534.455 311.685 498.798C310.222 497.134 308.335 495.992 306.284 495.442C304.233 494.893 302.028 494.938 299.93 495.648C254.961 510.859 198.803 557.38 176.045 642.315C175.438 644.578 174.931 646.811 174.38 649.06C174.38 649.037 174.387 649.011 174.393 648.99L81.7886 675.481C78.0802 676.538 75.2054 679.466 74.2071 683.191L65.6866 714.99C64.1188 720.841 67.5951 726.862 73.4461 728.43L164.539 752.838C164.963 762.194 165.614 767.991 165.701 768.725C166.238 773.186 169.432 776.87 173.762 778.031L200.261 785.131C193.466 810.491 202.6 831.2 215.399 834.63C228.098 838.032 246.187 824.896 253.104 799.909C253.166 799.722 253.222 799.532 253.275 799.336L279.758 806.432C284.088 807.592 288.696 805.998 291.386 802.402C291.829 801.811 295.291 797.115 300.336 789.225L391.434 813.635C397.285 815.202 403.306 811.726 404.874 805.875L413.394 774.076C414.393 770.351 413.367 766.378 410.684 763.608ZM84.8067 686.031L171.653 661.184C167.354 682.191 165.34 702.004 164.585 718.769L81.9665 696.631L84.8067 686.031ZM164.221 741.392L76.2862 717.83L79.1264 707.231L164.236 730.036C164.167 734.152 164.172 737.948 164.226 741.519C164.22 741.477 164.22 741.437 164.221 741.392ZM218.239 824.03C212.94 822.61 205.18 809.17 210.86 787.971L242.659 796.492C236.979 817.691 223.539 825.45 218.239 824.03ZM282.598 795.833L176.602 767.431C176.602 767.431 174.409 749.03 175.471 721.686L306.456 756.783C293.697 780.993 282.598 795.833 282.598 795.833ZM311.527 746.781L176.075 710.487C177.386 691.133 180.395 668.48 186.644 645.155C209.366 560.358 265.965 518.721 303.444 506.042C329.563 535.762 357.76 600.12 335.039 684.917C328.789 708.242 320.068 729.364 311.527 746.781ZM394.274 803.035L306.34 779.473C306.318 779.513 306.298 779.547 306.272 779.58C308.104 776.515 310.008 773.225 312.005 769.63L397.115 792.435L394.274 803.035ZM399.955 781.836L317.336 759.698C325.058 744.806 333.22 726.64 340.007 706.294L402.795 771.236L399.955 781.836Z" fill="#394240"/>
<path d="M280.723 590.839C263.165 586.134 245.108 596.559 240.403 614.117C235.699 631.676 246.124 649.732 263.682 654.437C281.24 659.141 299.296 648.716 304.001 631.158C308.706 613.6 298.281 595.544 280.723 590.839ZM266.522 643.837C254.815 640.7 247.866 628.665 251.003 616.957C254.14 605.25 266.175 598.302 277.883 601.439C289.59 604.575 296.538 616.611 293.402 628.318C290.265 640.025 278.229 646.974 266.522 643.837Z" fill="#394240"/>
<path d="M266.522 643.837C278.23 646.974 290.264 640.026 293.402 628.318C296.539 616.61 289.591 604.576 277.883 601.439C266.175 598.301 254.14 605.249 251.003 616.957C247.866 628.665 254.814 640.7 266.522 643.837Z" fill="#B4CCB9"/>
<g opacity="0.15">
<path d="M84.8067 686.031L81.9665 696.631L164.585 718.769C165.344 702.01 167.358 682.198 171.653 661.184L84.8067 686.031Z" fill="#231F20"/>
<path d="M340.007 706.294C333.227 726.636 325.065 744.802 317.336 759.698L399.955 781.836L402.795 771.236L340.007 706.294Z" fill="#231F20"/>
</g>
<g opacity="0.2">
<path d="M79.1264 707.231L76.2862 717.83L164.221 741.392C164.22 741.437 164.22 741.477 164.226 741.519C164.172 737.948 164.168 734.147 164.236 730.036L79.1264 707.231Z" fill="#231F20"/>
<path d="M312.005 769.63C310.007 773.23 308.104 776.515 306.272 779.58C306.299 779.542 306.319 779.507 306.34 779.473L394.274 803.035L397.115 792.435L312.005 769.63Z" fill="#231F20"/>
</g>
</g>
</g>
<defs>
<clipPath id="clip0_43_2078">
<rect width="351.153" height="351.153" fill="white" transform="translate(136.69 450) rotate(15)"/>
</clipPath>
</defs>
</svg>