<svg width="140" height="172" viewBox="0 0 140 172" fill="none" xmlns="http://www.w3.org/2000/svg">
<path fill-rule="evenodd" clip-rule="evenodd" d="M11.7537 3.20612C11.5328 1.06969 13.6751 -0.556789 15.7395 0.180062L41.1866 9.26298C49.974 5.38036 59.7287 3.21899 70 3.21899C80.2842 3.21899 90.0503 5.38576 98.8463 9.27753L124.334 0.180062C126.399 -0.556789 128.541 1.06969 128.32 3.20612L125.55 29.9901C134.613 41.5189 140 55.9495 140 71.6095C140 109.381 108.66 140 70 140C31.3401 140 0 109.381 0 71.6095C0 55.9121 5.41301 41.4499 14.5148 29.9074L11.7537 3.20612ZM70 134.11C105.33 134.11 133.971 106.127 133.971 71.6095C133.971 37.0916 105.33 9.10933 70 9.10933C34.6698 9.10933 6.02896 37.0916 6.02896 71.6095C6.02896 106.127 34.6698 134.11 70 134.11ZM47.1236 22.0025C54.1022 18.9258 61.8464 17.2134 70 17.2134C78.1539 17.2134 85.8984 18.9259 92.8773 22.0029C90.1015 21.4766 87.3207 22.0407 85.2708 23.8031C82.5727 26.123 81.8526 29.9073 83.0576 33.5125L77.8185 38.6311L71.7972 32.7482C71.2156 32.1799 70.2726 32.1799 69.6909 32.7482L63.6696 38.6311L57.2583 32.3671C57.9722 29.125 57.1413 25.8782 54.7279 23.8031C52.6786 22.0412 49.8987 21.4769 47.1236 22.0025ZM99.0162 25.1755C115.006 34.7336 125.676 51.9541 125.676 71.6095C125.676 101.652 100.749 126.006 70 126.006C39.2509 126.006 14.3238 101.652 14.3238 71.6095C14.3238 51.9556 24.9924 34.7361 40.9803 25.1776C40.7258 25.415 40.4782 25.6644 40.2386 25.9259C36.1113 30.4298 35.9066 36.7817 39.7814 40.1133C43.6563 43.4448 50.1433 42.4944 54.2707 37.9905C55.0206 37.1721 55.6411 36.2927 56.1311 35.3816L62.6164 41.7178C63.1981 42.2861 64.1411 42.2861 64.7227 41.7178L70.7441 35.8349L76.7654 41.7178C77.347 42.2861 78.29 42.2861 78.8717 41.7178L84.4148 36.3021C84.7962 36.8858 85.234 37.4514 85.7281 37.9905C89.8554 42.4944 96.3425 43.4448 100.217 40.1133C104.092 36.7817 103.887 30.4298 99.7601 25.9259C99.5198 25.6637 99.2715 25.4135 99.0162 25.1755ZM80.1406 70.8984L98.0234 97.7109C99.0781 99.0469 99.7109 100.734 99.7578 102.562C99.7578 106.898 96.2422 110.391 91.9297 110.391H48.8281C44.5156 110.391 41 106.875 41 102.562C41 100.734 41.6328 99.0469 42.6875 97.7109L60.5703 70.8984V56.6719H58.4609C56.8906 56.6719 55.625 55.3828 55.625 53.8359C55.625 52.2656 56.914 51 58.4609 51H82.25C83.8203 51 85.0859 52.2891 85.0859 53.8359C85.0859 55.4062 83.7969 56.6719 82.25 56.6719H80.1406V70.8984ZM46.9062 105.82L56.6562 91.5938H74.6797V88.8984H68.4219V85.4531H74.6797V80.2266H68.4219V76.7812H74.6797V71.5547H68.4219V68.1094H74.6797V62.8828H68.4219V59.4375H74.6797V56.6719H64.5078V72.3047L45.7578 100.383C45.3359 100.992 45.1016 101.742 45.1016 102.539C45.1016 103.945 45.8281 105.164 46.9062 105.82Z" fill="#5FBFEF"/>
<path d="M25.82 167L32.06 153H35.26L41.52 167H38.12L33 154.64H34.28L29.14 167H25.82ZM28.94 164L29.8 161.54H37L37.88 164H28.94ZM42.9725 167V153H49.8125C51.5725 153 52.8925 153.333 53.7725 154C54.6658 154.667 55.1125 155.547 55.1125 156.64C55.1125 157.373 54.9325 158.013 54.5725 158.56C54.2125 159.093 53.7192 159.507 53.0925 159.8C52.4658 160.093 51.7458 160.24 50.9325 160.24L51.3125 159.42C52.1925 159.42 52.9725 159.567 53.6525 159.86C54.3325 160.14 54.8592 160.56 55.2325 161.12C55.6192 161.68 55.8125 162.367 55.8125 163.18C55.8125 164.38 55.3392 165.32 54.3925 166C53.4458 166.667 52.0525 167 50.2125 167H42.9725ZM46.1925 164.56H49.9725C50.8125 164.56 51.4458 164.427 51.8725 164.16C52.3125 163.88 52.5325 163.44 52.5325 162.84C52.5325 162.253 52.3125 161.82 51.8725 161.54C51.4458 161.247 50.8125 161.1 49.9725 161.1H45.9525V158.74H49.4125C50.1992 158.74 50.7992 158.607 51.2125 158.34C51.6392 158.06 51.8525 157.64 51.8525 157.08C51.8525 156.533 51.6392 156.127 51.2125 155.86C50.7992 155.58 50.1992 155.44 49.4125 155.44H46.1925V164.56ZM64.9655 167.24C63.8855 167.24 62.8788 167.067 61.9455 166.72C61.0255 166.36 60.2255 165.853 59.5455 165.2C58.8655 164.547 58.3321 163.78 57.9455 162.9C57.5721 162.02 57.3855 161.053 57.3855 160C57.3855 158.947 57.5721 157.98 57.9455 157.1C58.3321 156.22 58.8655 155.453 59.5455 154.8C60.2388 154.147 61.0455 153.647 61.9655 153.3C62.8855 152.94 63.8921 152.76 64.9855 152.76C66.1988 152.76 67.2921 152.973 68.2655 153.4C69.2521 153.813 70.0788 154.427 70.7455 155.24L68.6655 157.16C68.1855 156.613 67.6521 156.207 67.0655 155.94C66.4788 155.66 65.8388 155.52 65.1455 155.52C64.4921 155.52 63.8921 155.627 63.3455 155.84C62.7988 156.053 62.3255 156.36 61.9255 156.76C61.5255 157.16 61.2121 157.633 60.9855 158.18C60.7721 158.727 60.6655 159.333 60.6655 160C60.6655 160.667 60.7721 161.273 60.9855 161.82C61.2121 162.367 61.5255 162.84 61.9255 163.24C62.3255 163.64 62.7988 163.947 63.3455 164.16C63.8921 164.373 64.4921 164.48 65.1455 164.48C65.8388 164.48 66.4788 164.347 67.0655 164.08C67.6521 163.8 68.1855 163.38 68.6655 162.82L70.7455 164.74C70.0788 165.553 69.2521 166.173 68.2655 166.6C67.2921 167.027 66.1921 167.24 64.9655 167.24ZM78.5975 167V153H81.8375V167H78.5975ZM91.48 156.08C92.3333 156.08 93.0933 156.253 93.76 156.6C94.44 156.933 94.9733 157.453 95.36 158.16C95.7467 158.853 95.94 159.747 95.94 160.84V167H92.82V161.32C92.82 160.453 92.6267 159.813 92.24 159.4C91.8667 158.987 91.3333 158.78 90.64 158.78C90.1467 158.78 89.7 158.887 89.3 159.1C88.9133 159.3 88.6067 159.613 88.38 160.04C88.1667 160.467 88.06 161.013 88.06 161.68V167H84.94V156.24H87.92V159.22L87.36 158.32C87.7467 157.6 88.3 157.047 89.02 156.66C89.74 156.273 90.56 156.08 91.48 156.08ZM104.046 167.16C102.886 167.16 101.853 166.927 100.946 166.46C100.04 165.98 99.3263 165.32 98.8063 164.48C98.2996 163.64 98.0463 162.687 98.0463 161.62C98.0463 160.54 98.2996 159.587 98.8063 158.76C99.3263 157.92 100.04 157.267 100.946 156.8C101.853 156.32 102.886 156.08 104.046 156.08C105.18 156.08 106.166 156.32 107.006 156.8C107.846 157.267 108.466 157.94 108.866 158.82L106.446 160.12C106.166 159.613 105.813 159.24 105.386 159C104.973 158.76 104.52 158.64 104.026 158.64C103.493 158.64 103.013 158.76 102.586 159C102.16 159.24 101.82 159.58 101.566 160.02C101.326 160.46 101.206 160.993 101.206 161.62C101.206 162.247 101.326 162.78 101.566 163.22C101.82 163.66 102.16 164 102.586 164.24C103.013 164.48 103.493 164.6 104.026 164.6C104.52 164.6 104.973 164.487 105.386 164.26C105.813 164.02 106.166 163.64 106.446 163.12L108.866 164.44C108.466 165.307 107.846 165.98 107.006 166.46C106.166 166.927 105.18 167.16 104.046 167.16ZM112.233 167.16C111.7 167.16 111.24 166.98 110.853 166.62C110.48 166.247 110.293 165.773 110.293 165.2C110.293 164.627 110.48 164.167 110.853 163.82C111.24 163.46 111.7 163.28 112.233 163.28C112.78 163.28 113.24 163.46 113.613 163.82C113.987 164.167 114.173 164.627 114.173 165.2C114.173 165.773 113.987 166.247 113.613 166.62C113.24 166.98 112.78 167.16 112.233 167.16Z" fill="#5FBFEF"/>
</svg>
