<svg xmlns="http://www.w3.org/2000/svg" width="100" height="100" viewBox="0 0 100 100" fill="none">
  <path fill-rule="evenodd" clip-rule="evenodd" d="M8.39553 2.29008C8.23773 0.764062 9.76796 -0.397706 11.2425 0.128616L29.419 6.61642C35.6957 3.84312 42.6633 2.29928 50 2.29928C57.3458 2.29928 64.3217 3.84697 70.6045 6.62681L88.8101 0.128616C90.2846 -0.397706 91.8149 0.764062 91.6571 2.29008L89.6788 21.4215C96.152 29.6564 100 39.964 100 51.1496C100 78.129 77.6142 100 50 100C22.3858 100 0 78.129 0 51.1496C0 39.9372 3.86643 29.607 10.3677 21.3624L8.39553 2.29008ZM50 95.7926C75.2359 95.7926 95.6936 75.8053 95.6936 51.1496C95.6936 26.494 75.2359 6.50667 50 6.50667C24.7641 6.50667 4.3064 26.494 4.3064 51.1496C4.3064 75.8053 24.7641 95.7926 50 95.7926ZM33.6597 15.7161C38.6445 13.5184 44.176 12.2953 50 12.2953C55.8242 12.2953 61.356 13.5185 66.341 15.7164C64.3582 15.3404 62.3719 15.7434 60.9077 17.0022C58.9805 18.6593 58.4661 21.3624 59.3268 23.9375L55.5847 27.5936L51.2837 23.3915C50.8683 22.9856 50.1947 22.9856 49.7792 23.3915L45.4783 27.5936L40.8988 23.1194C41.4087 20.8035 40.8153 18.4844 39.0914 17.0022C37.6276 15.7437 35.6419 15.3406 33.6597 15.7161ZM70.7259 17.9825C82.1472 24.8097 89.7687 37.1101 89.7687 51.1496C89.7687 72.6083 71.9637 90.004 50 90.004C28.0363 90.004 10.2313 72.6083 10.2313 51.1496C10.2313 37.1111 17.8517 24.8115 29.2716 17.984C29.0898 18.1535 28.913 18.3317 28.7419 18.5185C25.7938 21.7356 25.6476 26.2727 28.4153 28.6523C31.183 31.032 35.8167 30.3532 38.7648 27.1361C39.3005 26.5515 39.7436 25.9234 40.0936 25.2725L44.726 29.7984C45.1415 30.2043 45.8151 30.2043 46.2305 29.7984L50.5315 25.5964L54.8324 29.7984C55.2479 30.2043 55.9214 30.2043 56.3369 29.7984L60.2963 25.9301C60.5687 26.347 60.8814 26.751 61.2343 27.1361C64.1824 30.3532 68.8161 31.032 71.5838 28.6523C74.3515 26.2727 74.2053 21.7356 71.2572 18.5185C71.0856 18.3312 70.9082 18.1525 70.7259 17.9825ZM57.2433 50.6417L70.0167 69.7935C70.7701 70.7478 71.2221 71.9531 71.2556 73.2589C71.2556 76.356 68.7444 78.8504 65.664 78.8504H34.8772C31.7969 78.8504 29.2857 76.3393 29.2857 73.2589C29.2857 71.9531 29.7377 70.7478 30.4911 69.7935L43.2645 50.6417V40.4799H41.7578C40.6361 40.4799 39.7321 39.5591 39.7321 38.4542C39.7321 37.3326 40.6529 36.4286 41.7578 36.4286H58.75C59.8716 36.4286 60.7757 37.3493 60.7757 38.4542C60.7757 39.5759 59.8549 40.4799 58.75 40.4799H57.2433V50.6417ZM33.5044 75.5859L40.4687 65.4241H53.3426V63.4989H48.8727V61.0379H53.3426V57.3047H48.8727V54.8437H53.3426V51.1105H48.8727V48.6495H53.3426V44.9163H48.8727V42.4553H53.3426V40.4799H46.077V51.6462L32.6841 71.702C32.3828 72.1373 32.2154 72.673 32.2154 73.2422C32.2154 74.2466 32.7344 75.1172 33.5044 75.5859Z" fill="#FAF2E3"/>
</svg>