<svg width="24" height="24" viewBox="0 0 24 24" fill="none" xmlns="http://www.w3.org/2000/svg">
<g id="Group 5657">
<path id="Star 2" d="M10.6224 1.08592C11.4859 0.639953 12.512 0.639954 13.3756 1.08592L17.549 3.24124L21.4806 5.34764C22.4472 5.86547 23.0542 6.86938 23.0638 7.96586L23.099 12L23.0638 16.0341C23.0542 17.1306 22.4472 18.1345 21.4807 18.6524L17.549 20.7588L13.3756 22.9141C12.512 23.36 11.4859 23.36 10.6224 22.9141L6.44899 20.7588L2.51732 18.6524C1.55078 18.1345 0.943748 17.1306 0.934182 16.0341L0.898987 12L0.934182 7.96586C0.943748 6.86938 1.55077 5.86547 2.51732 5.34764L6.44899 3.24124L10.6224 1.08592Z" stroke="#FAF2E3" stroke-width="1.2"/>
<path id="Vector 49" d="M12.127 22.6499V12.1499M12.127 12.1499L21.877 6.8999M12.127 12.1499L1.62701 6.8999" stroke="#FAF2E3" stroke-width="1.2"/>
<path id="Vector 63" d="M6.75 3L18 9V13.5" stroke="#FAF2E3" stroke-linecap="round"/>
</g>
</svg>
