<svg xmlns="http://www.w3.org/2000/svg" width="25" height="24" viewBox="0 0 25 24" fill="none">
  <path d="M15.0119 22.139C15.0119 22.1385 15.0118 22.138 15.0115 22.1375L14.1108 20.527C13.5383 19.5032 12.065 19.5032 11.4925 20.527L10.5914 22.1382C10.3917 22.4949 10.0632 22.7551 9.67783 22.8618C9.2925 22.9685 8.88191 22.9129 8.53624 22.7072L5.927 21.1525C5.5812 20.9463 5.32888 20.6067 5.22554 20.2085C5.12219 19.8102 5.1763 19.3858 5.37595 19.0287L6.33785 17.3087C6.89703 16.3089 6.17428 15.0766 5.02868 15.0766H3.1657C2.76638 15.0766 2.38342 14.9128 2.10107 14.6212C1.81871 14.3296 1.66008 13.9342 1.66008 13.5218V10.4123C1.66008 10 1.81871 9.60455 2.10107 9.31298C2.38342 9.02141 2.76638 8.85761 3.1657 8.85761H5.02868C6.17428 8.85761 6.89703 7.62531 6.33785 6.62545L5.37595 4.90546C5.27685 4.72858 5.2125 4.53326 5.18657 4.33068C5.16064 4.12809 5.17363 3.92222 5.22481 3.72483C5.27599 3.52744 5.36435 3.3424 5.48484 3.1803C5.60533 3.0182 5.75558 2.88221 5.927 2.78012L8.53473 1.22538C8.88054 1.01922 9.29149 0.963351 9.67719 1.07007C10.0629 1.17678 10.3917 1.43734 10.5914 1.79442L11.4928 3.40684C12.0652 4.43075 13.5385 4.43096 14.1112 3.40722L15.0134 1.79442C15.2131 1.43776 15.5416 1.1775 15.927 1.07081C16.3123 0.96412 16.7229 1.01971 17.0686 1.22538L19.6778 2.78012C20.0232 2.9863 20.2752 3.32559 20.3786 3.7235C20.4819 4.12141 20.428 4.54539 20.2289 4.90235L19.2653 6.62551C18.7062 7.62537 19.4289 8.85761 20.5745 8.85761H22.4376C22.8369 8.85761 23.2199 9.02141 23.5022 9.31298C23.7846 9.60455 23.9432 10 23.9432 10.4123V13.5218C23.9432 13.9342 23.7846 14.3296 23.5022 14.6212C23.2199 14.9128 22.8369 15.0766 22.4376 15.0766H20.5741C19.4287 15.0766 18.7059 16.3087 19.2648 17.3085L20.2274 19.0303C20.427 19.3874 20.4811 19.8117 20.3778 20.21C20.2744 20.6083 20.0221 20.9479 19.6763 21.1541L17.0686 22.7088C16.7228 22.915 16.3118 22.9708 15.9261 22.8641C15.5407 22.7575 15.212 22.4972 15.0123 22.1404C15.012 22.14 15.0119 22.1395 15.0119 22.139V22.139Z" stroke="#FAF2E3" stroke-width="1.2" stroke-linejoin="round"/>
  <path d="M16.7184 12C16.7184 14.1518 14.9668 15.9 12.8015 15.9C10.6362 15.9 8.88465 14.1518 8.88465 12C8.88465 9.8482 10.6362 8.1 12.8015 8.1C14.9668 8.1 16.7184 9.8482 16.7184 12Z" stroke="#FAF2E3" stroke-width="1.2"/>
</svg>