<svg width="24" height="18" viewBox="0 0 24 18" fill="none" xmlns="http://www.w3.org/2000/svg">
<g id="Group 5622">
<rect id="Rectangle 3300" x="0.899994" y="1.5" width="22.2" height="15" rx="1" stroke="#FAF2E3" stroke-width="1.2"/>
<g id="Exclude">
<mask id="path-2-inside-1_38_202" fill="white">
<path fill-rule="evenodd" clip-rule="evenodd" d="M11.9998 14.25C14.0709 14.25 15.7498 11.8995 15.7498 9C15.7498 6.10051 14.0709 3.75 11.9998 3.75C9.92878 3.75 8.24985 6.10051 8.24985 9C8.24985 11.8995 9.92878 14.25 11.9998 14.25ZM13.9561 12V10.9796H12.6819V6H11.868L9.89999 7.06034V7.09483L10.137 7.83557H10.1782L11.5692 7.28384V10.9796H10.1782V12H13.9561Z"/>
</mask>
<path fill-rule="evenodd" clip-rule="evenodd" d="M11.9998 14.25C14.0709 14.25 15.7498 11.8995 15.7498 9C15.7498 6.10051 14.0709 3.75 11.9998 3.75C9.92878 3.75 8.24985 6.10051 8.24985 9C8.24985 11.8995 9.92878 14.25 11.9998 14.25ZM13.9561 12V10.9796H12.6819V6H11.868L9.89999 7.06034V7.09483L10.137 7.83557H10.1782L11.5692 7.28384V10.9796H10.1782V12H13.9561Z" fill="#FAF2E3"/>
<path d="M13.9561 10.9796H15.1561V9.7796H13.9561V10.9796ZM13.9561 12V13.2H15.1561V12H13.9561ZM12.6819 10.9796H11.4819V12.1796H12.6819V10.9796ZM12.6819 6H13.8819V4.8H12.6819V6ZM11.868 6V4.8H11.5652L11.2988 4.94359L11.868 6ZM9.89999 7.06034L9.33079 6.00393L8.69999 6.34381V7.06034H9.89999ZM9.89999 7.09483H8.69999V7.28211L8.75706 7.46048L9.89999 7.09483ZM10.137 7.83557L8.99404 8.20122L9.26097 9.03557H10.137V7.83557ZM10.1782 7.83557V9.03557H10.4075L10.6206 8.95103L10.1782 7.83557ZM11.5692 7.28384H12.7692V5.51692L11.1267 6.16839L11.5692 7.28384ZM11.5692 10.9796V12.1796H12.7692V10.9796H11.5692ZM10.1782 10.9796V9.7796H8.97819V10.9796H10.1782ZM10.1782 12H8.97819V13.2H10.1782V12ZM14.5498 9C14.5498 10.2285 14.1924 11.2906 13.675 12.0148C13.156 12.7414 12.5473 13.05 11.9998 13.05V15.45C13.5235 15.45 14.7897 14.5833 15.628 13.4098C16.4679 12.2339 16.9498 10.671 16.9498 9H14.5498ZM11.9998 4.95C12.5473 4.95 13.156 5.2586 13.675 5.98518C14.1924 6.70945 14.5498 7.77152 14.5498 9H16.9498C16.9498 7.32898 16.4679 5.76606 15.628 4.5902C14.7897 3.41665 13.5235 2.55 11.9998 2.55V4.95ZM9.44985 9C9.44985 7.77152 9.80734 6.70945 10.3247 5.98518C10.8437 5.2586 11.4524 4.95 11.9998 4.95V2.55C10.4762 2.55 9.20997 3.41665 8.37172 4.5902C7.53182 5.76606 7.04985 7.32898 7.04985 9H9.44985ZM11.9998 13.05C11.4524 13.05 10.8437 12.7414 10.3247 12.0148C9.80734 11.2906 9.44985 10.2285 9.44985 9H7.04985C7.04985 10.671 7.53182 12.2339 8.37172 13.4098C9.20997 14.5833 10.4762 15.45 11.9998 15.45V13.05ZM12.7561 10.9796V12H15.1561V10.9796H12.7561ZM12.6819 12.1796H13.9561V9.7796H12.6819V12.1796ZM11.4819 6V10.9796H13.8819V6H11.4819ZM11.868 7.2H12.6819V4.8H11.868V7.2ZM10.4692 8.11676L12.4372 7.05641L11.2988 4.94359L9.33079 6.00393L10.4692 8.11676ZM11.1 7.09483V7.06034H8.69999V7.09483H11.1ZM11.2799 7.46992L11.0429 6.72918L8.75706 7.46048L8.99404 8.20122L11.2799 7.46992ZM10.1782 6.63557H10.137V9.03557H10.1782V6.63557ZM11.1267 6.16839L9.73574 6.72011L10.6206 8.95103L12.0116 8.3993L11.1267 6.16839ZM12.7692 10.9796V7.28384H10.3692V10.9796H12.7692ZM10.1782 12.1796H11.5692V9.7796H10.1782V12.1796ZM11.3782 12V10.9796H8.97819V12H11.3782ZM13.9561 10.8H10.1782V13.2H13.9561V10.8Z" fill="#FAF2E3" mask="url(#path-2-inside-1_38_202)"/>
</g>
<path id="Ellipse 174" d="M2.68324 4.74447C2.54263 4.80272 2.39769 4.84883 2.24999 4.88249L2.24999 2.85H4.28248C4.24882 2.99769 4.20271 3.14263 4.14447 3.28325C4.00878 3.61082 3.8099 3.90847 3.55918 4.15919C3.30846 4.40991 3.01082 4.60879 2.68324 4.74447Z" fill="#FAF2E3" stroke="#FAF2E3" stroke-width="1.2"/>
<path id="Ellipse 176" d="M21.3166 4.74447C21.4572 4.80272 21.6022 4.84883 21.7499 4.88249L21.7499 2.85H19.7174C19.751 2.99769 19.7971 3.14263 19.8554 3.28325C19.9911 3.61082 20.1899 3.90847 20.4407 4.15919C20.6914 4.40991 20.989 4.60879 21.3166 4.74447Z" fill="#FAF2E3" stroke="#FAF2E3" stroke-width="1.2"/>
<path id="Ellipse 175" d="M2.68324 13.2555C2.54263 13.1973 2.39769 13.1512 2.24999 13.1175L2.24999 15.15H4.28248C4.24882 15.0023 4.20271 14.8574 4.14447 14.7168C4.00878 14.3892 3.8099 14.0915 3.55918 13.8408C3.30846 13.5901 3.01082 13.3912 2.68324 13.2555Z" fill="#FAF2E3" stroke="#FAF2E3" stroke-width="1.2"/>
<path id="Ellipse 177" d="M21.3166 13.2555C21.4572 13.1973 21.6022 13.1512 21.7499 13.1175L21.7499 15.15H19.7174C19.751 15.0023 19.7971 14.8574 19.8554 14.7168C19.9911 14.3892 20.1899 14.0915 20.4407 13.8408C20.6914 13.5901 20.989 13.3912 21.3166 13.2555Z" fill="#FAF2E3" stroke="#FAF2E3" stroke-width="1.2"/>
</g>
</svg>
